HIERARCHY
ROOT ui
{
	 OFFSET 0 0 0
	 CHANNELS 3 XPosition YPosition Z Position
	 EndSite
	 {
	 OFFSET 0 -1 0
	 }
}
ROOT li
{
	 OFFSET 0 0 0
	 CHANNELS 3 XPosition YPosition Z Position
	 EndSite
	 {
	 OFFSET 0 -1 0
	 }
}
ROOT ul
{
	 OFFSET 0 0 0
	 CHANNELS 3 XPosition YPosition Z Position
	 EndSite
	 {
	 OFFSET 0 -1 0
	 }
}
ROOT ll
{
	 OFFSET 0 0 0
	 CHANNELS 3 XPosition YPosition Z Position
	 EndSite
	 {
	 OFFSET 0 -1 0
	 }
}
ROOT tt
{
	 OFFSET 0 0 0
	 CHANNELS 3 XPosition YPosition Z Position
	 EndSite
	 {
	 OFFSET 0 -1 0
	 }
}
ROOT tb
{
	 OFFSET 0 0 0
	 CHANNELS 3 XPosition YPosition Z Position
	 EndSite
	 {
	 OFFSET 0 -1 0
	 }
}
ROOT td
{
	 OFFSET 0 0 0
	 CHANNELS 3 XPosition YPosition Z Position
	 EndSite
	 {
	 OFFSET 0 -1 0
	 }
}
ROOT v
{
	 OFFSET 0 0 0
	 CHANNELS 3 XPosition YPosition Z Position
	 EndSite
	 {
	 OFFSET 0 -1 0
	 }
}
ROOT bn
{
	 OFFSET 0 0 0
	 CHANNELS 3 XPosition YPosition Z Position
	 EndSite
	 {
	 OFFSET 0 -1 0
	 }
}
MOTION
Frames: 21
Frame Time: 0.002
0.016913637161254883	-2.021059989929199E-4	0		0.534085205078125	-2.394839111328125	0		-1.02637939453125	-0.01719028663635254	0		-0.7603670654296875	-2.262682861328125	0		1.306829833984375	-0.6563424682617187	0		3.2034599609375	-0.296971435546875	0		4.65128271484375	-0.24002589416503906	0		5.5866259765625	0.10233406829833984	0		-0.05327365875244141	5.99814013671875	0		
-0.011163301467895508	1.6758599877357482E-4	0		0.526100341796875	-2.384726806640625	0		-1.0234090576171875	-0.013194371223449707	0		-0.7693501586914062	-2.252541259765625	0		1.37069970703125	-0.6601380615234375	0		3.189340576171875	-0.29981787109375	0		4.65020068359375	-0.24005377197265626	0		5.59554736328125	0.10216912841796875	0		-0.021189640045166016	6.0047607421875	0		
0.00693091106414795	9.659780263900757E-4	0		0.5412032470703125	-2.380897705078125	0		-0.9564313354492188	-0.021995372772216797	0		-0.7723317260742187	-2.255470703125	0		1.36977490234375	-0.6601189575195312	0		3.23540380859375	-0.3014082336425781	0		4.64928076171875	-0.2400745849609375	0		5.5946318359375	0.10213681030273437	0		-0.021058416366577147	6.00278466796875	0		
-0.017779930114746094	0.0053055472373962406	0		0.5223411254882813	-2.38663818359375	0		-1.0331883544921876	-0.020994611740112305	0		-0.7012120361328125	-2.26332275390625	0		1.4938951416015624	-0.6696570434570313	0		3.172767822265625	-0.290628662109375	0		4.63954150390625	-0.23797262573242187	0		5.58387109375	0.10224122619628906	0		-0.05680365753173828	5.9992626953125	0		
0.009501602172851563	-0.0029999690055847166	0		0.5306023559570312	-2.394710693359375	0		-1.0338046875	-0.02094098472595215	0		-0.7658688354492188	-2.264470947265625	0		1.3034254150390625	-0.6562488403320312	0		3.18408544921875	-0.2957632141113281	0		4.6328359375	-0.24489506530761718	0		5.583255859375	0.10223452758789063	0		-0.05637773513793945	5.998294921875	0		
-0.013935036659240722	3.366459906101227E-4	0		0.5071985473632813	-2.387378173828125	0		-1.0261812744140626	-0.012985518455505371	0		-0.770185546875	-2.250367431640625	0		1.376876220703125	-0.6621359252929687	0		3.211517333984375	-0.3030875244140625	0		4.6405078125	-0.2329808349609375	0		5.58788037109375	0.11017977905273438	0		-0.03969901275634766	6.00713037109375	0		
0.06571640777587891	-6.121940016746521E-4	0		0.560777099609375	-2.39300341796875	0		-1.026523681640625	-0.012926692008972169	0		-0.7705394287109375	-2.25031005859375	0		1.371606201171875	-0.6560272827148438	0		3.19138818359375	-0.28580126953125	0		4.647076171875	-0.2400383758544922	0		5.5824384765625	0.10226780700683594	0		-0.05712178421020508	5.99839794921875	0		
-0.014495220184326172	4.48729008436203E-4	0		0.5226553955078125	-2.384470947265625	0		-1.0307913818359375	-0.01681479835510254	0		-0.69988232421875	-2.260138427734375	0		1.3673365478515624	-0.6599224243164062	0		3.176020263671875	-0.2975632629394531	0		4.6437822265625	-0.24595552062988282	0		5.58222119140625	0.10230984497070313	0		-0.05732207870483398	5.99845654296875	0		
0.004408308029174805	0.0012740540504455567	0		0.520521484375	-2.386382568359375	0		-1.03494873046875	-0.020700170516967775	0		-0.7769600830078125	-2.257109619140625	0		1.3672286376953124	-0.6598597412109375	0		3.197810546875	-0.30577679443359373	0		4.6436748046875	-0.24589482116699218	0		5.58211376953125	0.10236996459960937	0		-0.023365909576416016	6.00309375	0		
-0.017653718948364257	-0.0023810811042785643	0		0.5273736572265625	-2.397399658203125	0		-1.03496240234375	-0.020633148193359374	0		-0.7769697875976562	-2.2570419921875	0		1.367216064453125	-0.6597885131835938	0		3.19779736328125	-0.30570236206054685	0		4.64366162109375	-0.24581788635253907	0		5.582099609375	0.10244853973388672	0		-0.05745001220703125	5.9985888671875	0		
0.01244565773010254	3.170509934425354E-4	0		0.531509765625	-2.392373779296875	0		-1.026798583984375	-0.01266389274597168	0		-0.7629351806640625	-2.26014599609375	0		1.3053629150390624	-0.6529324340820313	0		3.191114013671875	-0.2855290222167969	0		4.6468017578125	-0.23976289367675782	0		5.58216357421875	0.10254537200927734	0		-0.057410099029541015	5.9986630859375	0		
-0.01442540454864502	7.352650165557862E-4	0		0.5227523193359375	-2.384178466796875	0		-0.9547398681640625	-0.018491428375244142	0		-0.732696533203125	-2.252447021484375	0		1.371463623046875	-0.6556705932617187	0		3.20206640625	-0.2995658569335938	0		4.63795556640625	-0.23754150390625	0		5.58228955078125	0.10266001892089843	0		-0.05734550476074219	5.99674267578125	0		
0.012747480392456054	4.833810031414032E-4	0		0.5209220581054688	-2.386062744140625	0		-1.0305462646484376	-0.01646217155456543	0		-0.7745372924804688	-2.254841064453125	0		1.36759423828125	-0.6595228271484375	0		3.202243896484375	-0.2994534606933594	0		4.6440322265625	-0.24549176025390626	0		5.587576171875	0.11172869873046876	0		-0.023134817123413087	6.00340234375	0		
-0.017078683853149413	-0.002048671007156372	0		0.5460904541015625	-2.39127734375	0		-0.9624424438476562	-0.025229671478271484	0		-0.7023988647460937	-2.26265625	0		1.367809814453125	-0.6594166870117187	0		3.192481689453125	-0.2972040405273437	0		4.64424365234375	-0.245352783203125	0		5.582671875	0.10294036102294922	0		-0.05704580307006836	5.99892041015625	0		
-0.018748863220214844	0.00607453203201294	0		0.5033385314941407	-2.391634765625	0		-1.0341568603515625	-0.0202425479888916	0		-0.7760748901367187	-2.25664111328125	0		1.368047119140625	-0.6593019409179688	0		3.19271484375	-0.2970682983398438	0		4.63656396484375	-0.23810096740722655	0		5.582900390625	0.10310356140136719	0		-0.055922607421875	5.99600634765625	0		
0.018374868392944336	-0.0032811150550842287	0		0.5326053466796875	-2.391884765625	0		-1.025818359375	-0.012250367164611817	0		-0.7519342041015625	-2.266843994140625	0		1.312298828125	-0.658480224609375	0		3.2118935546875	-0.30215924072265626	0		4.64576806640625	-0.2410491180419922	0		5.59232470703125	0.11816590118408203	0		-0.054771533966064455	5.99509912109375	0		
-0.006247499942779541	0.008141857147216797	0		0.5079397888183593	-2.386454345703125	0		-1.0255797119140626	-0.012152027130126954	0		-0.7694523315429688	-2.24951904296875	0		1.3725911865234375	-0.6550992431640625	0		3.192349609375	-0.2847568054199219	0		4.6480341796875	-0.23890080261230467	0		5.59337451171875	0.10334053802490234	0		-0.056587284088134765	5.99723486328125	0		
0.013891759872436524	0.0010105390548706054	0		0.52221142578125	-2.385504638671875	0		-1.033450439453125	-0.01994833564758301	0		-0.7752805786132813	-2.2563369140625	0		1.303821044921875	-0.6551040649414063	0		3.174371337890625	-0.3013709716796875	0		4.63929150390625	-0.23660885620117186	0		5.58360205078125	0.10365784454345703	0		-0.07157595062255859	5.9865390625	0		
-0.010999048233032226	-0.00655652379989624	0		0.5023522644042969	-2.393127197265625	0		-1.0372803955078125	-0.022791061401367187	0		-0.7750435791015625	-2.25622607421875	0		1.4969345703125	-0.6643657836914062	0		3.199542724609375	-0.3045180358886719	0		4.6413271484375	-0.25044932556152344	0		5.579720703125	0.09690413665771484	0		-0.07144941711425781	5.9866591796875	0		
-0.015762109756469727	-0.0013715720176696777	0		0.5226557006835938	-2.385246337890625	0		-1.03306884765625	-0.019731199264526367	0		-0.7748397827148438	-2.25611279296875	0		1.304219482421875	-0.6548250732421875	0		3.1956591796875	-0.30930279541015626	0		4.63766650390625	-0.23721665954589843	0		5.58398046875	0.10405010986328125	0		-0.05523023986816406	5.99658203125	0		
-0.012592910766601562	0.0017151590585708619	0		0.5067694091796875	-2.38891650390625	0		-1.0288870849609375	-0.015669734001159667	0		-0.7627422485351563	-2.261146728515625	0		1.3782921142578124	-0.6606025390625	0		3.1980185546875	-0.29116448974609377	0		4.6487880859375	-0.23817050170898438	0		5.5941103515625	0.10412049102783204	0		-0.055173370361328126	5.99670556640625	0		
